<svg xmlns="http://www.w3.org/2000/svg" width="1200" height="258" viewBox="0 0 1200 258" role="img" aria-label="Stack: systems: Rust, C, Go, Zig; blockchain: Solana · Anchor, EVM · Solidity, Cosmos · CometBFT, MultiversX; ai tooling: Claude Code, Axolotl, Runpod, OpenClaw; infra: Docker · Podman, Kubernetes · Helm, Terraform, GitHub Actions; data: PostgreSQL, Redis, MongoDB, Prometheus; web: TypeScript, React · Next.js, Node.js, tRPC">
<title>Stack: systems: Rust, C, Go, Zig; blockchain: Solana · Anchor, EVM · Solidity, Cosmos · CometBFT, MultiversX; ai tooling: Claude Code, Axolotl, Runpod, OpenClaw; infra: Docker · Podman, Kubernetes · Helm, Terraform, GitHub Actions; data: PostgreSQL, Redis, MongoDB, Prometheus; web: TypeScript, React · Next.js, Node.js, tRPC</title>
<style>
  text{font-family:ui-monospace,SFMono-Regular,Menlo,Consolas,'Liberation Mono',monospace;}
  .eyebrow{font-size:11px;letter-spacing:.2em;fill:#7c8595}
  .pulse{animation:pulse 2.4s ease-in-out infinite}
  @keyframes pulse{50%{opacity:.25}}
  .scan{animation:scan 7s linear infinite}
  @keyframes scan{from{transform:translateY(-60px)}to{transform:translateY(var(--h))}}
  
</style>
<defs>
  <pattern id="lines-stack" width="4" height="4" patternUnits="userSpaceOnUse">
    <rect width="4" height="1" fill="rgba(255,255,255,.03)"/>
  </pattern>
  <radialGradient id="vig-stack" cx="50%" cy="50%" r="75%">
    <stop offset="60%" stop-color="#000" stop-opacity="0"/>
    <stop offset="100%" stop-color="#000" stop-opacity=".7"/>
  </radialGradient>
  <linearGradient id="band-stack" x1="0" y1="0" x2="0" y2="1">
    <stop offset="0" stop-color="#fff" stop-opacity="0"/>
    <stop offset=".5" stop-color="#fff" stop-opacity=".035"/>
    <stop offset="1" stop-color="#fff" stop-opacity="0"/>
  </linearGradient>
  <clipPath id="clip-stack"><rect width="1200" height="258" rx="12"/></clipPath>
</defs>
<rect width="1200" height="258" rx="12" fill="#000"/><rect x=".5" y=".5" width="1199" height="257" rx="11.5" fill="#090b0f" stroke="rgba(255,255,255,.14)"/><line x1="12" y1="1.5" x2="1188" y2="1.5" stroke="rgba(255,255,255,.05)"/>
<text x="28" y="30" class="eyebrow">// STACK · DAILY DRIVERS</text>
<text x="1172" y="30" text-anchor="end" class="eyebrow">ARCH LINUX · KDE · ZSH · VIM</text>
<line x1="28" y1="36" x2="1172" y2="36" stroke="rgba(255,255,255,.07)"/><circle cx="34" cy="54" r="3.5" fill="#ff6b3d"/><text x="48" y="58" font-size="11" letter-spacing=".2em" fill="#7c8595">SYSTEMS</text><text x="250" y="58" font-size="14" fill="#eef2f7">Rust</text><text x="485" y="58" font-size="14" fill="#eef2f7">C</text><text x="720" y="58" font-size="14" fill="#eef2f7">Go</text><text x="955" y="58" font-size="14" fill="#eef2f7">Zig</text><line x1="28" y1="70" x2="1172" y2="70" stroke="rgba(255,255,255,.07)"/><circle cx="34" cy="88" r="3.5" fill="#3fe0ff"/><text x="48" y="92" font-size="11" letter-spacing=".2em" fill="#7c8595">BLOCKCHAIN</text><text x="250" y="92" font-size="14" fill="#eef2f7">Solana · Anchor</text><text x="485" y="92" font-size="14" fill="#eef2f7">EVM · Solidity</text><text x="720" y="92" font-size="14" fill="#eef2f7">Cosmos · CometBFT</text><text x="955" y="92" font-size="14" fill="#eef2f7">MultiversX</text><line x1="28" y1="104" x2="1172" y2="104" stroke="rgba(255,255,255,.07)"/><circle cx="34" cy="122" r="3.5" fill="#ff66d8"/><text x="48" y="126" font-size="11" letter-spacing=".2em" fill="#7c8595">AI TOOLING</text><text x="250" y="126" font-size="14" fill="#eef2f7">Claude Code</text><text x="485" y="126" font-size="14" fill="#eef2f7">Axolotl</text><text x="720" y="126" font-size="14" fill="#eef2f7">Runpod</text><text x="955" y="126" font-size="14" fill="#eef2f7">OpenClaw</text><line x1="28" y1="138" x2="1172" y2="138" stroke="rgba(255,255,255,.07)"/><circle cx="34" cy="156" r="3.5" fill="rgba(255,255,255,.5)"/><text x="48" y="160" font-size="11" letter-spacing=".2em" fill="#7c8595">INFRA</text><text x="250" y="160" font-size="14" fill="#eef2f7">Docker · Podman</text><text x="485" y="160" font-size="14" fill="#eef2f7">Kubernetes · Helm</text><text x="720" y="160" font-size="14" fill="#eef2f7">Terraform</text><text x="955" y="160" font-size="14" fill="#eef2f7">GitHub Actions</text><line x1="28" y1="172" x2="1172" y2="172" stroke="rgba(255,255,255,.07)"/><circle cx="34" cy="190" r="3.5" fill="rgba(255,255,255,.5)"/><text x="48" y="194" font-size="11" letter-spacing=".2em" fill="#7c8595">DATA</text><text x="250" y="194" font-size="14" fill="#eef2f7">PostgreSQL</text><text x="485" y="194" font-size="14" fill="#eef2f7">Redis</text><text x="720" y="194" font-size="14" fill="#eef2f7">MongoDB</text><text x="955" y="194" font-size="14" fill="#eef2f7">Prometheus</text><line x1="28" y1="206" x2="1172" y2="206" stroke="rgba(255,255,255,.07)"/><circle cx="34" cy="224" r="3.5" fill="rgba(255,255,255,.5)"/><text x="48" y="228" font-size="11" letter-spacing=".2em" fill="#7c8595">WEB</text><text x="250" y="228" font-size="14" fill="#eef2f7">TypeScript</text><text x="485" y="228" font-size="14" fill="#eef2f7">React · Next.js</text><text x="720" y="228" font-size="14" fill="#eef2f7">Node.js</text><text x="955" y="228" font-size="14" fill="#eef2f7">tRPC</text>
<g clip-path="url(#clip-stack)" pointer-events="none">
  <rect width="1200" height="258" fill="url(#lines-stack)"/>
  <rect class="scan" style="--h:318px" width="1200" height="60" fill="url(#band-stack)"/>
  <rect width="1200" height="258" fill="url(#vig-stack)"/>
</g>
</svg>
